<mxfile host="app.diagrams.net" modified="2023-04-17T14:27:25.780Z" agent="Mozilla/5.0 (Windows NT 10.0; Win64; x64) AppleWebKit/537.36 (KHTML, like Gecko) Chrome/112.0.0.0 Safari/537.36" version="21.1.5" etag="17ScZPeC1lhH-JijlyY-" type="github">
  <diagram name="Trang-1" id="5px7r3D4sKR2rN02WqdL">
    <mxGraphModel>
      <root>
        <mxCell id="0" />
        <mxCell id="1" parent="0" />
      </root>
    </mxGraphModel>
  </diagram>
</mxfile>
